HIERARCHY
ROOT Hips
{
    OFFSET 0.0 0.0 0.0
    CHANNELS 6 Xposition Yposition Zposition Zrotation Xrotation Yrotation
    JOINT LeftUpLeg
    {
        OFFSET 13.045747721196173 0.0 0.0
        CHANNELS 3 Zrotation Xrotation Yrotation
        JOINT LeftLeg
        {
            OFFSET 0.0 0.0 -57.822590631699526
            CHANNELS 3 Zrotation Xrotation Yrotation
            JOINT LeftFoot
            {
                OFFSET 0.0 0.0 -46.00107220195312
                CHANNELS 3 Zrotation Xrotation Yrotation
                JOINT LeftToeBase
                {
                    OFFSET 0.0 -11.732799791731283 0.0
                    CHANNELS 3 Zrotation Xrotation Yrotation
                    End Site
                    {
                        OFFSET 0 0 0
                    }
                }
            }
        }
    }
    JOINT RightUpLeg
    {
        OFFSET -13.045747721196173 0.0 0.0
        CHANNELS 3 Zrotation Xrotation Yrotation
        JOINT RightLeg
        {
            OFFSET 0.0 0.0 -57.822590631699526
            CHANNELS 3 Zrotation Xrotation Yrotation
            JOINT RightFoot
            {
                OFFSET 0.0 0.0 -46.00107220195312
                CHANNELS 3 Zrotation Xrotation Yrotation
                JOINT RightToeBase
                {
                    OFFSET 0.0 -11.732799791731283 0.0
                    CHANNELS 3 Zrotation Xrotation Yrotation
                    End Site
                    {
                        OFFSET 0 0 0
                    }
                }
            }
        }
    }
    JOINT Spine
    {
        OFFSET 0.0 0.0 12.143159751922212
        CHANNELS 3 Zrotation Xrotation Yrotation
        JOINT Spine1
        {
            OFFSET 0.0 0.0 11.681868342720927
            CHANNELS 3 Zrotation Xrotation Yrotation
            JOINT Spine2
            {
                OFFSET 0.0 0.0 11.681868342720925
                CHANNELS 3 Zrotation Xrotation Yrotation
                JOINT Spine3
                {
                    OFFSET 0.0 0.0 11.68186834272092
                    CHANNELS 3 Zrotation Xrotation Yrotation
                    JOINT Spine4
                    {
                        OFFSET 0.0 0.0 11.681868342720929
                        CHANNELS 3 Zrotation Xrotation Yrotation
                        JOINT RightShoulder
                        {
                            OFFSET -23.354791477931443 0.0 0.0
                            CHANNELS 3 Zrotation Xrotation Yrotation
                            JOINT RightArm
                            {
                                OFFSET -35.24876397701897 0.0 0.0
                                CHANNELS 3 Zrotation Xrotation Yrotation
                                JOINT RightForeArm
                                {
                                    OFFSET -33.474622815749335 0.0 0.0
                                    CHANNELS 3 Zrotation Xrotation Yrotation
                                    JOINT RightHand
                                    {
                                        OFFSET -11.48778968306003 0.0 0.0
                                        CHANNELS 3 Zrotation Xrotation Yrotation
                                        End Site
                                        {
                                            OFFSET 0 0 0
                                        }
                                    }
                                }
                            }
                        }
                        JOINT LeftShoulder
                        {
                            OFFSET 23.354791477931443 0.0 0.0
                            CHANNELS 3 Zrotation Xrotation Yrotation
                            JOINT LeftArm
                            {
                                OFFSET 35.24876397701897 0.0 0.0
                                CHANNELS 3 Zrotation Xrotation Yrotation
                                JOINT LeftForeArm
                                {
                                    OFFSET 33.474622815749335 0.0 0.0
                                    CHANNELS 3 Zrotation Xrotation Yrotation
                                    JOINT LeftHand
                                    {
                                        OFFSET 11.48778968306003 0.0 0.0
                                        CHANNELS 3 Zrotation Xrotation Yrotation
                                        End Site
                                        {
                                            OFFSET 0 0 0
                                        }
                                    }
                                }
                            }
                        }
                        JOINT Neck
                        {
                            OFFSET 0.0 0.0 11.681868368962505
                            CHANNELS 3 Zrotation Xrotation Yrotation
                            JOINT Head
                            {
                                OFFSET 0.0 0.0 25.664967125013916
                                CHANNELS 3 Zrotation Xrotation Yrotation
                                End Site
                                {
                                    OFFSET 0 0 0
                                }
                            }
                        }
                    }
                }
            }
        }
    }
}
MOTION
Frames: 8
Frame Time: 0.03333333333333333
66.76983411312104 -4.671697014570237 520.4069194793701 120.41060492841024 -80.25636597536084 119.19962508683213 -1.8496500395766389 5.481798047796557 -11.675225741085772 11.06541563468417 -6.894852974685034 23.68399231275096 -108.26044099797194 -9.54166404439055e-15 74.04873965806247 6.361109362927032e-15 3.180554681463516e-15 1.5902773407317578e-15 9.81124925912092 13.27774796833937 14.469432303851022 -24.554709624240708 -12.86086774773114 -36.822788461588566 153.81279510901157 9.54166404439055e-15 -59.53692013418199 0.0 0.0 7.951386703658792e-16 -0.061127751487112296 2.5817853008856577 -0.33173638118859033 0.0 0.0 0.0 0.0 0.0 0.0 0.0 0.0 0.0 0.0 0.0 0.0 133.7447308281792 5.792041962827801 -156.7184934715829 113.56276129543288 6.2871853850585204e-15 1.36216995912221e-14 3.798085366274704e-16 44.37281473883436 3.279980031987302e-15 0.0 0.0 0.0 -135.91761830044723 10.376198996159209 153.20248235827307 -108.05261602099874 -5.147961824134441e-15 3.736602920350565e-15 -180.0 45.10242980382129 -180.0 0.0 0.0 0.0 -8.25815695409864 1.4241052862246118e-14 7.291233404222695e-16 0.0 0.0 9.93923337957349e-17
66.76983411312104 -4.671697014570237 520.4069194793701 120.41060492841024 -80.25636597536084 119.19962508683213 -1.8496500395766389 5.481798047796557 -11.675225741085772 11.06541563468417 -6.894852974685034 23.68399231275096 -108.26044099797194 -9.54166404439055e-15 74.04873965806247 6.361109362927032e-15 3.180554681463516e-15 1.5902773407317578e-15 9.81124925912092 13.27774796833937 14.469432303851022 -24.554709624240708 -12.86086774773114 -36.822788461588566 153.81279510901157 9.54166404439055e-15 -59.53692013418199 0.0 0.0 7.951386703658792e-16 -0.061127751487112296 2.5817853008856577 -0.33173638118859033 0.0 0.0 0.0 0.0 0.0 0.0 0.0 0.0 0.0 0.0 0.0 0.0 133.7447308281792 5.792041962827801 -156.7184934715829 113.56276129543288 6.2871853850585204e-15 1.36216995912221e-14 3.798085366274704e-16 44.37281473883436 3.279980031987302e-15 0.0 0.0 0.0 -135.91761830044723 10.376198996159209 153.20248235827307 -108.05261602099874 -5.147961824134441e-15 3.736602920350565e-15 -180.0 45.10242980382129 -180.0 0.0 0.0 0.0 -8.25815695409864 1.4241052862246118e-14 7.291233404222695e-16 0.0 0.0 9.93923337957349e-17
66.76983411312104 -4.671697014570237 520.4069194793701 120.41060492841024 -80.25636597536084 119.19962508683213 -1.8496500395766389 5.481798047796557 -11.675225741085772 11.06541563468417 -6.894852974685034 23.68399231275096 -108.26044099797194 -9.54166404439055e-15 74.04873965806247 6.361109362927032e-15 3.180554681463516e-15 1.5902773407317578e-15 9.81124925912092 13.27774796833937 14.469432303851022 -24.554709624240708 -12.86086774773114 -36.822788461588566 153.81279510901157 9.54166404439055e-15 -59.53692013418199 0.0 0.0 7.951386703658792e-16 -0.061127751487112296 2.5817853008856577 -0.33173638118859033 0.0 0.0 0.0 0.0 0.0 0.0 0.0 0.0 0.0 0.0 0.0 0.0 133.7447308281792 5.792041962827801 -156.7184934715829 113.56276129543288 6.2871853850585204e-15 1.36216995912221e-14 3.798085366274704e-16 44.37281473883436 3.279980031987302e-15 0.0 0.0 0.0 -135.91761830044723 10.376198996159209 153.20248235827307 -108.05261602099874 -5.147961824134441e-15 3.736602920350565e-15 -180.0 45.10242980382129 -180.0 0.0 0.0 0.0 -8.25815695409864 1.4241052862246118e-14 7.291233404222695e-16 0.0 0.0 9.93923337957349e-17
66.74535813331605 -4.6100838750600825 520.4297189712524 121.60040378565503 -80.51335149036993 120.49241653232679 -2.076362204215638 5.720093422719803 -12.107175852862847 10.975206481172261 -6.745218495273805 24.053760262845692 -108.14842327254537 1.5902773407317584e-14 73.68460206862055 0.0 0.0 0.0 10.202037151947117 13.480248406936191 15.281047601331595 -24.92159225089604 -12.404880394461548 -38.38501141583516 140.32671222818354 2.5444437451708134e-14 -62.2053387185508 0.0 0.0 0.0 -0.040236145451102226 2.5835111531089505 -0.29289142811954366 0.0 0.0 0.0 0.0 0.0 0.0 0.0 0.0 0.0 0.0 0.0 0.0 133.29164236163868 6.064797234497463 -156.36608190313814 113.40025212779156 2.697382848455447e-15 7.479884777186091e-15 8.375295061903281e-15 47.59025761883536 -7.169133664671267e-15 -2.981770013872047e-16 0.0 0.0 -135.5510548372673 9.654955614121144 153.58384424436474 -108.13633966331112 7.017110854116776e-15 -1.1574954297680838e-15 180.0 57.44881118554394 -180.0 0.0 0.0 0.0 -8.405577151034523 -5.161272137697437e-16 -2.1307941826709498e-15 0.0 0.0 0.0
66.74140169620514 -4.6034278437495235 520.4334606170654 121.76995149608632 -80.54791190037906 120.6758837296637 -2.0923985177310827 5.733917233354802 -12.470114420514957 10.642365771638184 -6.459919303037523 24.47742568076793 -107.60240179535822 9.54166404439055e-15 73.28966648286782 0.0 0.0 0.0 10.261416146312683 13.50936799672752 15.433677944447076 -24.99116546402001 -12.334387343070093 -38.714964472319565 133.1662543758026 0.0 -65.58255714489862 0.0 0.0 1.3914926731402886e-15 -0.03696334958375547 2.589386303307075 -0.28874343315325135 -3.4483642953516864e-34 -4.969616689786745e-17 -7.951386703658792e-16 -3.4483642953516864e-34 -4.969616689786745e-17 -7.951386703658792e-16 -3.4483642953516864e-34 -4.969616689786745e-17 -7.951386703658792e-16 -3.4483642953516864e-34 -4.969616689786745e-17 -7.951386703658792e-16 133.31030933182 5.956248431429777 -156.3242104991242 113.66225266664055 1.8444233339233854e-15 8.804858160102006e-15 -1.4730345634258934e-16 51.65768002057979 -6.995816567496974e-15 9.93923337957349e-17 0.0 0.0 -136.37793384993589 9.481200925419103 153.81616709138953 -109.37507760267755 5.190740893671956e-15 -3.6769445606209015e-15 180.0 69.63715565894616 180.0 0.0 0.0 0.0 -8.030090846624603 7.21752424172993e-15 -8.88313190160158e-16 0.0 0.0 0.0
66.73704822063446 -4.597521199285985 520.4372320175171 121.91597380462336 -80.57723118599779 120.83431271829534 -2.114303593922416 5.754017345516358 -12.869289064540762 10.313706317770551 -6.174201919024033 24.92182451346418 -107.01658440073554 -6.3611093629270335e-15 72.87046645018309 0.0 0.0 0.0 10.277197749464538 13.502207829561215 15.490378677914588 -25.00547649783164 -12.296461730661182 -38.93676623857509 127.95863353588005 1.5902773407317584e-14 -68.35935761566846 0.0 0.0 1.5902773407317584e-15 -0.03383589592088024 2.5949190218563865 -0.2903988064308744 7.951386703658792e-16 0.0 0.0 7.951386703658792e-16 0.0 0.0 7.951386703658792e-16 0.0 0.0 7.951386703658792e-16 0.0 0.0 133.39083552044156 5.749518980468886 -156.30071224426766 114.00419003354783 4.468923529814076e-15 4.79806386287604e-15 4.9924690225950935e-15 55.720733362106884 -2.638956301625188e-15 0.0 0.0 0.0 -137.2539728181481 9.3086188745744 154.05540272361395 -110.66825431884432 3.4228373272894076e-15 -6.234085742096572e-15 -180.0 80.23749663086448 -180.0 7.951386703658792e-16 0.0 0.0 -7.613974222378193 1.6425746268021675e-14 -5.007854357590889e-16 0.0 0.0 0.0
66.73233675956726 -4.591860495507717 520.4410108566285 122.04004462453291 -80.6018225096177 120.96926251940032 -2.1943079477825744 5.8307636543759465 -13.055898911946322 10.179633044206723 -6.056788845026784 25.06799706021975 -106.51104917731588 -9.54166404439055e-15 72.55931877792992 0.0 0.0 0.0 10.321310686118574 13.523010427497079 15.533610838981303 -25.071705176583816 -12.28755837978182 -39.16548870118127 134.48227286806147 -3.1805546814635168e-15 -64.85234667897929 8.827812596100317e-32 6.3611093629270335e-15 -1.5902773407317584e-15 -0.030794659092474218 2.5998518946779865 -0.29473695096649116 7.951386703658792e-16 0.0 0.0 7.951386703658792e-16 0.0 0.0 7.951386703658792e-16 0.0 0.0 7.951386703658792e-16 0.0 0.0 133.52917007016808 5.43587434770131 -156.29191589309303 114.44625023730215 -9.652959957150548e-15 3.2417012360623164e-15 -5.594730541449553e-15 60.6055926130369 3.2696628604466178e-15 0.0 0.0 0.0 -137.9467102919442 9.150791648524079 154.27737642742233 -111.69381988380293 -1.2313733740366722e-14 4.510292536145028e-15 -179.99999999999997 86.9079115088058 179.99999999999997 7.951386703658792e-16 0.0 0.0 -7.248282790641162 -1.3472927970624097e-16 -2.0003634126245893e-15 1.9878466759146985e-16 0.0 0.0
66.72708041667939 -4.586443175375462 520.4448640823365 122.14208007151245 -80.62235882797799 121.08053147627439 -2.275151888009509 5.909288908183478 -13.233879263109873 10.073317070799046 -5.959008739803846 25.206456070589827 -106.06003429468666 3.1805546814635168e-15 72.27876023407778 -6.3611093629270335e-15 0.0 0.0 10.286613010160602 13.475316434235094 15.468814762823294 -25.037361730053956 -12.30058273222351 -39.16458219665434 139.63052482328797 1.2722218725854067e-14 -59.87361184763201 0.0 0.0 0.0 -0.02783898925604946 2.606755330510916 -0.3024689614471479 0.0 0.0 0.0 0.0 0.0 0.0 0.0 0.0 0.0 0.0 0.0 0.0 133.66656319554374 5.134022486826005 -156.28637432478706 114.84646361981117 9.864390350570094e-15 8.1900936710453e-15 1.789543483813649e-14 64.2709253077809 -2.2509228378406902e-14 -5.517382872562698e-33 1.987846675914698e-16 3.1805546814635168e-15 -138.30243474317507 9.18848795192206 154.43712823662054 -112.23122190634132 1.4107969727406409e-14 -1.8121125258035567e-15 -179.99999999999997 88.33558689324126 179.99999999999997 0.0 0.0 0.0 -6.912535388480274 3.0759754123710536e-15 3.8492512933186135e-16 0.0 0.0 -1.987846675914698e-16
